<?xml version="1.0" encoding="UTF-8"?>
<svg width="512" height="512" version="1.1" viewBox="0 0 135.47 135.47" xmlns="http://www.w3.org/2000/svg">
 <g fill="#ff4757">
  <path d="m67.733 16.933c-27.307 0-49.389 22.082-49.389 49.389 0 27.307 22.082 49.389 49.389 49.389 27.307 0 49.389-22.082 49.389-49.389 0-27.307-22.082-49.389-49.389-49.389zm0 11.377c21.017 0 38.012 16.995 38.012 38.012s-16.995 38.012-38.012 38.012-38.012-16.995-38.012-38.012 16.995-38.012 38.012-38.012z"/>
  <path d="m67.733 45.156c-11.653 0-21.167 9.5136-21.167 21.167s9.5136 21.167 21.167 21.167 21.167-9.5136 21.167-21.167-9.5136-21.167-21.167-21.167zm0 11.377c5.363 0 9.7897 4.4267 9.7897 9.7897s-4.4267 9.7897-9.7897 9.7897-9.7897-4.4267-9.7897-9.7897 4.4267-9.7897 9.7897-9.7897z"/>
  <circle cx="67.733" cy="66.322" r="5.6885"/>
 </g>
</svg>
